<?xml version="1.0" encoding="UTF-8"?>
<svg id="Layer_2" xmlns="http://www.w3.org/2000/svg" viewBox="0 0 54.8 77.44">
  <defs>
    <style>
      .cls-1 {
        fill: #fff;
      }

      .cls-2 {
        fill: #fff;
      }

      .cls-3 {
        fill: #fff;
      }

      .cls-4 {
        fill: #fff;
      }

      .cls-5 {
        fill: #fff;
      }

      .cls-6 {
        fill: #fff;
      }

      .cls-7 {
        fill: #fff;
      }

      .cls-8 {
        fill: #000;
      }

      .cls-9 {
        fill: #fff;
      }

      .cls-10 {
        fill: #fff;
      }

      .cls-11 {
        fill: #fff;
      }

      .cls-12 {
        fill: #fff;
      }

      .cls-13 {
        fill: #fff;
      }

      .cls-14 {
        fill: #fff;
      }

      .cls-15 {
        fill: #fff;
      }

      .cls-16 {
        fill: #fff;
      }
    </style>
  </defs>
  <g id="Layer_1-2" data-name="Layer_1">
    <g>
      <path d="M26.45,18.46c2.64-.1,5.27-.21,7.91-.29,1.66-.05,2.14.4,2.27,2.04.13,1.73.31,3.47.33,5.2.01.93.38,1.34,1.18,1.72,4.48,2.16,8.06,5.37,10.74,9.56,2.82,4.41,4.08,9.24,4.16,14.47.08,4.71-1.34,8.99-3.54,13.01-.93,1.7-2.35,3.19-3.77,4.55-2.49,2.4-4.97,4.82-8.21,6.33-15.03,6.96-33.14-2-36.85-18.14-2.79-12.12,3.45-23.83,12.57-28.9.91-.5,1.27-1.08,1.25-2.1-.02-1.56.12-3.11.2-4.67.09-1.66.72-2.39,2.4-2.56,1.31-.13,2.63-.14,3.95-.15,1.8-.02,3.6,0,5.4,0,0-.02,0-.05,0-.07Z"/>
      <path class="cls-8" d="M35.62,7.59c.15-1.74,4.8-7.5,6.19-7.59.99.01,5.34,6.03,5.4,7.95-.02,1.54-4.8,6-5.62,6.65-1.96,1.46-6.02-5.58-5.98-6.83v-.18Z"/>
      <path class="cls-2" d="M25.63,60.93c-1.68,0-3.36-.02-5.03,0-.61,0-.83-.21-.86-.83-.18-4.08-.09-8.15.02-12.22.02-.58.24-.87.82-.96,4.09-.65,8.2-1.01,12.34-1.14.78-.02.89.34.87.98-.1,2.64-.45,5.25-.84,7.86-.22,1.48-.49,2.95-.79,4.42-.29,1.43-.32,1.43-1.68,1.51-1.62.09-3.23.17-4.85.25,0,.04,0,.08,0,.12Z"/>
      <path class="cls-2" d="M20.13,44.12c-.22-2.06.27-3.93.41-5.82.03-.48.32-.71.82-.77,3.46-.42,6.92-.63,10.4-.54.87.02,1.16.44,1.25,1.17.19,1.54.58,3.05.54,4.73-4.47.26-8.93.51-13.42,1.23Z"/>
      <path class="cls-2" d="M16.89,47.78c0,4.26,0,8.37,0,12.48,0,.59-.28.7-.77.68-1.31-.05-2.63-.1-3.94-.13-.66-.02-.95-.37-1.02-.99-.34-3.15-.56-6.3-.57-9.47,0-.52.1-.9.69-1.07,1.81-.54,3.6-1.13,5.59-1.5Z"/>
      <path class="cls-16" d="M32.12,34.18c-3.72-.06-7.28.1-10.91.47.38-2.2.95-4.19,1.55-6.18.21-.71.58-1.05,1.38-1.1,1.8-.11,3.58-.11,5.37.07.5.05.9.12,1.08.72.6,1.93,1.15,3.86,1.53,6.03Z"/>
      <path class="cls-16" d="M34.05,25.46c-5.61-1.52-11.13-1.39-16.53.51,0-1.34,0-2.58,0-3.82,0-.44.25-.64.67-.66.6-.03,1.19-.07,1.79-.08,4.18-.1,8.36-.07,12.54-.32,1.26-.08,1.3-.04,1.37,1.2.05,1,.34,2,.17,3.17Z"/>
      <path class="cls-13" d="M31.12,63.38c-.21,1.53-.72,2.81-1.07,4.12-.19.69-.61.9-1.3.9-2.33.03-4.65-.18-6.97-.27-.61-.02-.82-.36-.92-.88-.23-1.1-.47-2.2-.72-3.4,3.71-.16,7.32-.32,10.99-.48Z"/>
      <path class="cls-16" d="M17.61,38.21c-.15,2.07-.31,3.91-.42,5.75-.03.58-.31.87-.83,1-1.83.47-3.66.95-5.55,1.44-.17-2.02.3-3.9.42-5.81.04-.62.41-.89,1.01-1.06,1.72-.49,3.44-.98,5.38-1.33Z"/>
      <path class="cls-16" d="M8.38,60.28c-4.56-.61-3.83-.27-4.86-3.94-.27-.97-.35-2-.57-2.99-.15-.7.05-1.14.73-1.38,1.28-.46,2.51-1.08,4.08-1.45.09,3.25.2,6.42.62,9.75Z"/>
      <path class="cls-16" d="M45.5,57.62c.84-3.76,1.02-7.33.9-10.88.2-.08.32-.17.4-.15,3.92.96,3.06.28,3.36,3.95.04.48.01.96-.03,1.44-.41,4.51.32,3.81-4.64,5.64Z"/>
      <path class="cls-16" d="M43.18,43.22c-2.06-.09-3.96-.18-5.85-.25-.46-.02-.83-.09-.89-.63-.2-1.63-.4-3.26-.61-5.01,2.19.13,4.17.48,6.13.91.56.12.81.38.86.94.12,1.3.47,2.57.37,4.04Z"/>
      <path class="cls-7" d="M32.87,68.1c.43-1.58.85-3.05,1.22-4.54.11-.45.4-.55.76-.61,1.99-.33,3.99-.66,6.18-1.02-.4,1.86-1.22,3.4-1.98,4.96-.09.18-.36.35-.57.4-1.8.37-3.6.82-5.61.81Z"/>
      <path class="cls-7" d="M33.72,28.38c2.77.86,4.98,2.12,7.09,3.62,1.16.83.93,2.05,1.28,3.25-2.15-.29-4.14-.56-6.13-.81-.52-.07-.9-.2-1.03-.79-.37-1.67-.77-3.34-1.21-5.27Z"/>
      <path class="cls-7" d="M2.94,49.07c.14-1.96.54-3.69,1.01-5.4.24-.86.67-1.5,1.57-1.77.85-.26,1.62-.76,2.64-.9.26,1.25-.33,2.47-.17,3.65.32,2.3-.76,3.35-2.86,3.74-.69.13-1.29.6-2.18.68Z"/>
      <path class="cls-11" d="M22.32,71.18h6.03c-.11.91-.56,1.47-.91,2.06-.81,1.35-1.76,1.7-3.26,1.27-.31-.09-.6-.22-.7-.5-.37-.98-1.06-1.84-1.16-2.83Z"/>
      <path class="cls-1" d="M42.63,66.1c.66-1.79,1.16-3.12,1.63-4.46.15-.43.37-.71.82-.85,1.06-.34,2.11-.71,3.44-1.16-.74,1.96-1.67,3.52-2.75,4.96-.68.9-1.87.83-3.14,1.51Z"/>
      <path class="cls-3" d="M30.29,74.35c.59-2.36,1.62-3.76,4.08-3.5.74.08,1.51-.3,2.41-.18-1.14,3.07-3.94,2.95-6.48,3.68Z"/>
      <path class="cls-12" d="M49.17,43.85c-.56.3-.91.14-1.24.08-1.76-.34-1.76-.34-1.93-2.22-.07-.76-.18-1.51-.29-2.41,2.77.44,2.54,2.86,3.46,4.55Z"/>
      <path class="cls-15" d="M19.97,73.7c-1.93-.81-4.16-.8-4.94-3.23.54-.19.95.06,1.35.02,2.15-.22,3.31.79,3.59,3.22Z"/>
      <path class="cls-6" d="M9.69,66.7c-1.93-.58-2.44-2.15-3.36-3.45,3.12-.35,2.6.03,3.36,3.45Z"/>
      <path class="cls-5" d="M6.76,37.85c.73-.96,1.46-1.91,2.19-2.87.14-.13.28-.12.4.02-.04.29-.11.58-.12.88-.03,1.59-.95,2.28-2.42,2.43-.16-.14-.17-.3-.04-.47Z"/>
      <path class="cls-4" d="M9.35,35.01c-.13,0-.27-.01-.4-.02.04-.32.27-.55.53-.44.26.12.11.35-.13.46Z"/>
      <path class="cls-10" d="M6.76,37.85c.01.16.03.31.04.47-.07.2-.22.27-.32.06-.11-.23.03-.43.27-.52Z"/>
      <path class="cls-14" d="M40.97,69.54c.07-.05.14-.1.21-.14-.05.07-.1.13-.15.2l-.06-.06Z"/>
      <path class="cls-14" d="M41.02,69.6c-.07.05-.14.1-.21.16.05-.07.1-.14.16-.21,0,0,.06.06.06.06Z"/>
      <path class="cls-9" d="M40.94,11.87c-.71-.29-2.54-3.6-2.49-4.12.04-.66,2.52-3.84,2.97-3.85.63-.09,2.83,3.33,2.8,3.81-.02.88-2.74,4.14-3.15,4.17h-.13Z"/>
      <path class="cls-8" d="M43.21,22.42c.15-1.74,4.8-7.5,6.19-7.59.99.01,5.34,6.03,5.4,7.95-.02,1.54-4.8,6-5.62,6.65-1.96,1.46-6.02-5.58-5.98-6.83v-.18Z"/>
      <path class="cls-9" d="M48.52,26.69c-.71-.29-2.54-3.6-2.49-4.12.04-.66,2.52-3.84,2.97-3.85.63-.09,2.83,3.33,2.8,3.81-.02.88-2.74,4.14-3.15,4.17h-.13Z"/>
    </g>
  </g>
</svg>
