<?xml version="1.0" encoding="UTF-8"?>
<svg id="Layer_1" xmlns="http://www.w3.org/2000/svg" viewBox="0 0 124.64 55.06">
    <defs>
        <style>
            .cls-1 {
            fill: #dedc00;
            }
        </style>
    </defs>
    <path d="M120.61,13.55h0c-5.47-8.75-15.02-13.55-26.91-13.55-6.99,0-14.39,1.75-20.79,4.91-2.28,1.09-5.54,2.95-8.12,5.66-1.11,1.18-1.98,2.39-2.6,3.62C52.35,8.71,39.4,2.48,28.79,2.28h-.26C15.51,2.73,5.41,9.79,1.49,21.17c-3.53,10.25-.66,21.52,7.12,28.04,3.19,2.67,8.74,5.85,17.13,5.85,7.54,0,16.04-2.6,25.33-7.78,4.22-2.52,7.07-5.53,8.33-8.69.89.54,1.78,1.08,2.66,1.61l.19.11c5.09,3.08,10.35,6.27,16.01,9.24,7.32,3.57,13.8,5.31,19.8,5.31,3.53,0,6.91-.63,9.97-1.83,7.08-2.54,12.41-8.07,15.02-15.55,2.79-8.01,1.88-16.95-2.43-23.92ZM101.8,29.42c-.44,1.6-1.55,2.49-3.29,2.64-.31.03-.63.04-.95.04-5.12,0-10.93-3.28-16.22-6.51,4.17-1.69,8.62-3.13,12.5-3.13,2.49,0,4.43.56,6.1,1.75,1.67,1.21,2.4,3.26,1.86,5.21ZM39.88,28.09c-.55.24-1.1.47-1.64.71-4.31,1.86-8.38,3.62-11.88,3.62-.55,0-1.09-.04-1.64-.14-1.52-.23-1.65-.81-1.77-1.36-.39-1.71.55-3.91,2.2-5.04.99-.71,2.16-1.04,3.69-1.04,3.41,0,7.65,1.72,11.01,3.24,0,0,.02,0,.03.01Z"/>
    <path class="cls-1" d="M25.75,46.49c-5.89,0-9.65-2.12-11.78-3.9-5.16-4.32-7-11.93-4.59-18.94,2.75-7.99,10.01-12.95,19.43-13.27,12.18.22,30.17,11.14,42.08,18.37,1.14.69,2.17,1.32,3.15,1.91l1.3.8c6.68,4.11,14.22,8.75,22.23,8.75.55,0,1.1-.02,1.64-.07,5.2-.45,9.27-3.79,10.63-8.72,1.48-5.34-.48-10.9-4.99-14.18-3.13-2.22-6.81-3.33-10.98-3.33-6.36,0-13.07,2.56-18.79,5.07l-.07.03c-1.46.55-2.74.84-3.76.84-1.27,0-1.58-.46-1.7-.63-.57-.85.4-2.19,1.32-3.17,1.66-1.75,3.98-3.06,5.63-3.84,5.38-2.65,11.48-4.1,17.22-4.1,5.15,0,14.58,1.25,19.82,9.62,3,4.84,3.62,11.12,1.64,16.78-1.77,5.06-5.31,8.78-9.98,10.46-2.25.89-4.63,1.32-7.14,1.32-4.66,0-10.09-1.5-16.13-4.45-5.22-2.74-10.37-5.86-15.35-8.88-7.53-4.56-15.28-9.26-23.41-12.76-4.02-1.82-9.33-3.93-14.34-3.93-3.25,0-6.12.88-8.53,2.6-4.35,2.99-6.62,8.62-5.47,13.67.96,4.22,4.1,7.04,8.61,7.74.93.16,1.93.24,2.95.24,5.19,0,10.03-2.09,15.16-4.31,1.7-.74,3.47-1.5,5.19-2.14l.06-.02c1.24-.4,2.34-.62,3.22-.62,1.35,0,1.56.47,1.68.73.5,1.1-1.02,3.42-4.88,5.72-7.85,4.37-14.96,6.61-21.06,6.61h0Z"/>
</svg>
