<?xml version="1.0" encoding="UTF-8"?>
<svg id="Layer_1" xmlns="http://www.w3.org/2000/svg" viewBox="0 0 67.73 67.73">
  <defs>
    <style>
      .cls-1 {
      fill: #f9b233;
      }
    </style>
  </defs>
  <circle class="cls-1" cx="33.74" cy="34.11" r="16.87"/>
  <g>
    <path d="M47.55,19.5c-3.92-3.72-9.1-5.71-14.19-5.47-12.89.6-19.62,10.35-19.6,19.67.02,11.15,8.97,19.95,20.39,20.03.05,0,.09,0,.14,0,5.43,0,10.48-2.09,14.21-5.88,3.65-3.72,5.6-8.67,5.47-13.94-.04-5.32-2.37-10.57-6.41-14.4ZM48.8,34.13c-.09,5.14-2.43,8.42-4.37,10.28-2.71,2.59-6.49,4.07-10.12,3.97h-.04s-.04,0-.04,0c-3.66.2-7.46-1.29-10.41-4.07-3.02-2.85-4.69-6.62-4.71-10.64-.02-3.73,1.46-7.28,4.17-9.98,2.74-2.74,6.46-4.31,10.21-4.31h.05c4.14.02,8.2,1.75,11.13,4.75,2.73,2.79,4.19,6.34,4.12,10Z"/>
    <path d="M33.87,11.57c1.6,0,2.91-1.31,2.91-2.91V2.91c0-1.6-1.31-2.91-2.91-2.91s-2.91,1.31-2.91,2.91v5.75c0,1.6,1.31,2.91,2.91,2.91Z"/>
    <path d="M33.87,56.17c-1.6,0-2.91,1.31-2.91,2.91v5.74c0,1.6,1.31,2.91,2.91,2.91s2.91-1.31,2.91-2.91v-5.74c0-1.6-1.31-2.91-2.91-2.91Z"/>
    <path d="M11.57,33.87c0-1.6-1.31-2.91-2.91-2.91H2.91c-1.6,0-2.91,1.31-2.91,2.91s1.31,2.91,2.91,2.91h5.74c1.6,0,2.91-1.31,2.91-2.91Z"/>
    <path d="M64.82,30.96h-5.75c-1.6,0-2.91,1.31-2.91,2.91s1.31,2.91,2.91,2.91h5.75c1.6,0,2.91-1.31,2.91-2.91s-1.31-2.91-2.91-2.91Z"/>
    <path d="M13.98,49.63l-4.06,4.06c-1.13,1.14-1.13,2.98,0,4.12.55.55,1.28.85,2.06.85s1.51-.3,2.06-.85l4.06-4.06c1.13-1.14,1.13-2.98,0-4.12s-3.02-1.1-4.12,0Z"/>
    <path d="M51.69,18.95c.78,0,1.51-.3,2.06-.85l4.06-4.06c1.13-1.14,1.13-2.98,0-4.12s-3.02-1.1-4.12,0l-4.06,4.06c-1.13,1.14-1.13,2.98,0,4.12.55.55,1.28.85,2.06.85Z"/>
    <path d="M53.75,49.63c-1.1-1.1-3.02-1.1-4.12,0s-1.13,2.98,0,4.12l4.06,4.06c.55.55,1.28.85,2.06.85s1.51-.3,2.06-.85c1.13-1.13,1.13-2.98,0-4.12l-4.06-4.06Z"/>
    <path d="M13.98,18.1c.55.55,1.28.85,2.06.85s1.51-.3,2.06-.85c1.13-1.13,1.13-2.98,0-4.12l-4.06-4.06c-1.1-1.1-3.02-1.1-4.12,0s-1.13,2.98,0,4.12l4.06,4.06Z"/>
  </g>
</svg>
