<?xml version="1.0" encoding="UTF-8"?>
<svg id="Layer_2" xmlns="http://www.w3.org/2000/svg" viewBox="0 0 62.2 39.89">
  <defs>
    <style>
      .cls-1 {
        fill: #1d1d1b;
      }

      .cls-2 {
        fill: #fff;
      }
    </style>
  </defs>
  <g id="Layer_1-2" data-name="Layer_1">
    <g>
      <path class="cls-2" d="M19.53,38.39c-1.49,0-3.22-.69-5.31-2.12-2.95-2.02-4.86-3.49-7.06-5.19-1.07-.83-2.24-1.72-3.65-2.79-1.35-1.02-2.07-2.32-2.01-3.67.04-1.01.54-2.48,2.63-3.77,1.16-.72,2.27-1.43,3.36-2.12,1.96-1.25,3.81-2.44,5.85-3.6l1.49-.86c2.84-1.64,4.02-2.32,5.32-2.32.24,0,.48.03.72.08,3.23.69,3.05,4.34,2.93,6.75-.04.84-.11,2.21.07,2.69,2.82.72,5.66,1.07,8.66,1.07.56,0,1.13-.01,1.69-.04,5.45-.24,8.65-.69,12.66-1.79,4.17-1.15,4.55-2.03,4.65-4.46.14-3.59-.95-5.22-4.33-6.5-.14-.05-.38-.1-.68-.17-1.84-.43-6.15-1.42-5.47-4.82.41-2.03,1.92-3.24,4.06-3.24.31,0,.63.02.95.08,1.51.23,4.28,1.11,4.4,1.14l.34.11c3.98,1.32,7.16,4.13,8.73,7.73,1.52,3.47,1.55,7.18.09,10.44-1.59,3.55-4.81,6.27-9.08,7.67-4.68,1.53-10.29,2.27-17.14,2.27-1.96,0-4.08-.06-6.5-.18-.47-.02-.9-.04-1.29-.04-.98,0-1.56.11-1.78.33-.26.27-.56,1.11-.49,3.62.01.51-.2,1.71-1.09,2.63-.69.71-1.63,1.09-2.72,1.09Z"/>
      <path class="cls-1" d="M45.11,3c.23,0,.48.02.72.06,1.41.22,4.17,1.09,4.17,1.09,0,0,.12.04.32.1,3.44,1.14,6.38,3.59,7.83,6.9,2.82,6.45-.2,13.5-8.09,16.08-5.23,1.71-11.04,2.2-16.67,2.2-2.18,0-4.34-.07-6.43-.18-.49-.02-.95-.04-1.36-.04-2.94,0-3.9.83-3.77,5.49,0,.36-.34,2.18-2.31,2.18-1.01,0-2.44-.47-4.46-1.86-4.33-2.97-6.31-4.67-10.66-7.94-1.94-1.46-1.98-3.43.51-4.97,3.23-2,6.01-3.9,9.16-5.7,3.72-2.13,5.01-2.98,6.07-2.98.14,0,.27.02.41.04,3.61.77.26,8.32,2.65,9.35,3.11.82,6.2,1.19,9.32,1.19.58,0,1.17-.01,1.76-.04,5.38-.23,8.77-.68,12.99-1.84,4.39-1.21,5.61-2.43,5.75-5.85.16-3.99-1.1-6.38-5.3-7.96-.93-.35-5.69-.87-5.2-3.29.29-1.47,1.34-2.04,2.59-2.04M45.11,0c-2.86,0-4.98,1.7-5.53,4.45-.96,4.83,4.73,6.14,6.6,6.57.21.05.4.09.53.13,2.94,1.11,3.42,2.29,3.32,5.02-.07,1.76-.08,2.12-3.55,3.07-3.89,1.07-7,1.51-12.33,1.74-.54.02-1.09.04-1.63.04-2.51,0-4.91-.26-7.27-.78,0-.45.03-.99.05-1.4.12-2.38.36-7.33-4.12-8.29-.34-.07-.69-.11-1.04-.11-1.7,0-2.98.74-6.07,2.52-.45.26-.94.54-1.48.85-2.07,1.19-3.94,2.38-5.91,3.64-1.08.69-2.18,1.39-3.33,2.11C.56,21.29.06,23.43,0,24.55c-.08,1.86.84,3.62,2.6,4.94,1.41,1.06,2.57,1.95,3.64,2.78,2.22,1.71,4.14,3.19,7.13,5.24,2.34,1.61,4.36,2.39,6.16,2.39,1.5,0,2.81-.53,3.79-1.55,1.16-1.19,1.54-2.75,1.52-3.72-.04-1.33.04-2.03.1-2.38.15-.01.37-.03.67-.03.32,0,.69.01,1.21.04,2.44.12,4.6.18,6.58.18,7.02,0,12.78-.77,17.61-2.35,4.68-1.53,8.22-4.54,9.99-8.48,1.64-3.65,1.61-7.79-.09-11.66-1.74-3.98-5.25-7.09-9.63-8.55-.24-.08-.37-.12-.37-.12-.29-.09-3.01-.95-4.61-1.19-.4-.06-.8-.09-1.18-.09h0Z"/>
    </g>
  </g>
</svg>