<?xml version="1.0" encoding="UTF-8"?>
<svg id="Layer_2" xmlns="http://www.w3.org/2000/svg" viewBox="0 0 20.84 23.93">
  <defs>
    <style>
      .cls-1 {
        fill: #000;
      }

      .cls-2 {
        fill: #fff;
      }
    </style>
  </defs>
  <g id="Layer_1-2" data-name="Layer_1">
    <g>
      <path class="cls-1" d="M20.58,15.17c-.05-1.04-.03-5.17-.05-5.98-.06-2.04.03-4.3-.17-6.41-.07-1.12-.45-1.93-1.13-2.38-.7-.48-1.66-.53-2.82-.15-2.24.68-4.45,1.45-6.59,2.18-.88.3-1.76.61-2.68.92-.71.27-1.44.59-1.98,1.11-1.22,1.12-1.07,2.88-.93,4.58.03.36.06.72.08,1.08v.25c.12,1.85.27,4.64-.64,5.26-.28.19-.64.33-1.02.48-.43.17-.88.34-1.26.62C.47,17.47.04,18.3,0,19.48c-.04,1.26.51,2.53,1.48,3.39.79.7,1.84,1.06,2.95,1.06.66,0,1.33-.13,1.98-.39,1.75-.71,2.56-2.05,2.69-3.91.14-1.85.3-4.11.27-6.24,0-.27.16-.51.4-.59.59-.22.91-.31,1.41-.46.31-.09.68-.2,1.22-.37l.49-.16c.49-.16,1.5-.4,1.98-.55.65-.21.88.05.87.61-.02.94,0,.88-.06,2.11,0,.13-.05.54-.09.62-.27.48-.77.62-1.47.93-.9.4-1.73,1.18-2.15,2.34-.76,2.1.07,3.82,2.08,4.74,2.07.96,4.86.69,6.21-1.68.96-1.83.43-3.29.31-5.78Z"/>
      <path class="cls-2" d="M19.35,15.39c-.09-3.83-.27-7.46-.31-11.58-.02-2.51-1.37-2.57-3.27-1.8-2.41.86-4.76,1.65-7.25,2.55-.3.12-.62.23-.94.38-.85.38-1.85,1.06-1.84,2.11.03,2.9.28,5.05.05,7.89-.03.44-.13,1.41-.39,1.73-.54.77-2.44.64-3.2,1.47-.92.82-.76,2.6.1,3.52,1.26,1.4,3.82.95,4.71-.57.78-1.26.93-5.65.92-8.34,0-.47.3-.88.75-1.01l6.81-2c.66-.19,1.44.3,1.44,1,0,.35,0,1.79,0,2.26,0,1.72-.11,2.58-1.6,3.11-1.09.38-2.12,1.45-2.19,2.64-.16,2.97,3.2,3.91,5.09,2.29,1.56-1.29,1.06-3.83,1.11-5.65ZM8.18,9.29c-.18.05-.35-.08-.36-.26-.09-1.87-.83-1.61,3.11-2.82,2.11-.65,3.12-1,4.75-1.39.39-.09,1.28-.48,1.25.61,0,.29,0,.69,0,.98,0,.21-.13.39-.33.44l-8.42,2.44Z"/>
    </g>
  </g>
</svg>
