<?xml version="1.0" encoding="UTF-8"?>
<svg id="Layer_1" xmlns="http://www.w3.org/2000/svg" viewBox="0 0 65.1 54.75">
    <defs>
        <style>
            .cls-1 {
            fill: #fff;
            }

            .cls-2 {
            fill: #634e42;
            }
        </style>
    </defs>
    <path class="cls-2" d="M11.13,31.63c-1.97-.94-2.17-1.66-4.12-2.83C-2.43,22.35,18.25,8.45,24.74,3.28c2.51-2,6.14-4.41,9.6-2.64,8.61,4.87,17.9,9.42,25.42,15.64,1.84,1.52,4.38,3.54,5.14,5.68,1.57,5.05-6.74,4.95-9.6,7.14-2.1,1.78-1.35,4.31-1.02,6.92.29,1.96.55,3.89.56,5.83.02,3.9-1.11,8.97-4.79,11.17-2.31,1.32-5.31,1.41-8.01,1.5-6.61.11-13.01.16-19.67.23-12.31.13-10.3-12.24-10.08-20.04-.01-1.05-.09-2.39-1.06-3.02l-.1-.06Z"/>
    <path d="M11.13,31.61c-1.97-.94-4.45-.91-6.78-1.3-15.22-2.53,13.91-21.89,20.4-27.05,2.51-2,6.14-4.41,9.6-2.64,8.61,4.87,17.9,9.42,25.42,15.64,1.84,1.52,4.38,3.54,5.14,5.68,1.57,5.05-6.74,4.95-9.6,7.14-2.1,1.78-1.35,4.31-1.02,6.92.29,1.96.55,3.89.56,5.83.02,3.9-1.11,8.97-4.79,11.17-2.31,1.32-5.31,1.41-8.01,1.5-6.61.11-13.01.16-19.67.23-12.31.13-10.3-12.24-10.08-20.04-.01-1.05-.09-2.39-1.06-3.02l-.1-.06ZM31.3,5.93c-1.46.13-2.86.88-4.05,1.71-6.76,5.13-12.64,9.54-19.6,16.58-3.24,3.28,5.42,3.1,6.35,3.28,2.6.51,3.12,2.23,3.08,4.31.02,4.25-.53,8.61,0,12.86.33,3.18,3.59,5.6,6.96,5.59,6.43-.02,12.14-.12,18.09-.25,11.37.27,7.35-11.97,6.96-18.24-.51-5.31,3.75-5.59,8.79-7.66,1.75-.93,1.51-2.3.18-3.27-6.2-4.53-21.01-15.03-26.57-14.91h-.17Z"/>
    <g>
        <rect class="cls-1" x="27.85" y="27.36" width="10.24" height="10.24" rx="1.87" ry="1.87"/>
        <path d="M36.22,39.6h-6.5c-2.13,0-3.87-1.73-3.87-3.87v-6.5c0-2.13,1.73-3.87,3.87-3.87h6.5c2.13,0,3.87,1.73,3.87,3.87v6.5c0,2.13-1.73,3.87-3.87,3.87ZM29.85,35.6h6.24v-6.24h-6.24v6.24Z"/>
    </g>
</svg>
